HIERARCHY
ROOT reference
{
  OFFSET 0 0 0
  CHANNELS 6 Xposition Yposition Zposition Zrotation Xrotation Yrotation
  JOINT Hips
  {
    OFFSET 370.543 87.5 183.721
    CHANNELS 3 Zrotation Xrotation Yrotation
    JOINT RightUpLeg
    {
      OFFSET -9.29072 -1.53718 -0.00769521
      CHANNELS 3 Zrotation Xrotation Yrotation
      JOINT RightLeg
      {
        OFFSET 0.000649198 -41.8926 0.0287464
        CHANNELS 3 Zrotation Xrotation Yrotation
        JOINT RightFoot
        {
          OFFSET -0.131981 -42.8927 0.241786
          CHANNELS 3 Zrotation Xrotation Yrotation
          End Site
          {
            OFFSET 0 -7.69 17.5
          }
        }
      }
    }
    JOINT LeftUpLeg
    {
      OFFSET 9.29816 -1.6623 -0.0330144
      CHANNELS 3 Zrotation Xrotation Yrotation
      JOINT LeftLeg
      {
        OFFSET 0.0555409 -41.8801 -0.0492089
        CHANNELS 3 Zrotation Xrotation Yrotation
        JOINT LeftFoot
        {
          OFFSET 0.737583 -41.1094 -0.206555
          CHANNELS 3 Zrotation Xrotation Yrotation
          End Site
          {
            OFFSET 0 -7.69 17.5
          }
        }
      }
    }
    JOINT Spine
    {
      OFFSET 0.0742767 14.2946 0.0485675
      CHANNELS 3 Zrotation Xrotation Yrotation
      JOINT Spine1
      {
        OFFSET 0.0332084 9.70841 0.0159593
        CHANNELS 3 Zrotation Xrotation Yrotation
        JOINT Spine2
        {
          OFFSET 0.0388468 10.1231 0.00288192
          CHANNELS 3 Zrotation Xrotation Yrotation
          JOINT Spine3
          {
            OFFSET 0.0300771 9.71993 0.00776905
            CHANNELS 3 Zrotation Xrotation Yrotation
            JOINT Neck
            {
              OFFSET 0.058413 10.382 0.0516165
              CHANNELS 3 Zrotation Xrotation Yrotation
              JOINT Head
              {
                OFFSET 0.0298281 9.47849 0.0268718
                CHANNELS 3 Zrotation Xrotation Yrotation
                End Site
                {
                  OFFSET 0 15.95 0
                }
              }
            }
            JOINT RightShoulder
            {
              OFFSET -3.15612 6.91385 0.0353801
              CHANNELS 3 Zrotation Xrotation Yrotation
              JOINT RightArm
              {
                OFFSET -12.7781 -0.0057607 0.0332486
                CHANNELS 3 Zrotation Xrotation Yrotation
                JOINT RightForeArm
                {
                  OFFSET -26.4999 -0.0425897 0.0409183
                  CHANNELS 3 Zrotation Xrotation Yrotation
                  JOINT RightHand
                  {
                    OFFSET -25.993 -0.0294641 0.00108206
                    CHANNELS 3 Zrotation Xrotation Yrotation
                    JOINT RightHandThumb1
                    {
                      OFFSET -2.48905 0.190105 3.12053
                      CHANNELS 3 Zrotation Xrotation Yrotation
                      JOINT RightHandThumb2
                      {
                        OFFSET -3.68274 0 0
                        CHANNELS 3 Zrotation Xrotation Yrotation
                        JOINT RightHandThumb3
                        {
                          OFFSET -2.55832 0 0
                          CHANNELS 3 Zrotation Xrotation Yrotation
                          End Site
                          {
                            OFFSET -2.194 0 0
                          }
                        }
                      }
                    }
                    JOINT RightInHandIndex
                    {
                      OFFSET -3.22368 0.508421 1.97842
                      CHANNELS 3 Zrotation Xrotation Yrotation
                      JOINT RightHandIndex1
                      {
                        OFFSET -5.21684 -0.091368 0.999158
                        CHANNELS 3 Zrotation Xrotation Yrotation
                        JOINT RightHandIndex2
                        {
                          OFFSET -3.61937 0 0
                          CHANNELS 3 Zrotation Xrotation Yrotation
                          JOINT RightHandIndex3
                          {
                            OFFSET -2.0521 0 0
                            CHANNELS 3 Zrotation Xrotation Yrotation
                            End Site
                            {
                              OFFSET -1.805 0 0
                            }
                          }
                        }
                      }
                    }
                    JOINT RightInHandMiddle
                    {
                      OFFSET -3.38211 0.517263 0.756737
                      CHANNELS 3 Zrotation Xrotation Yrotation
                      JOINT RightHandMiddle1
                      {
                        OFFSET -5.17411 -0.084 0.313895
                        CHANNELS 3 Zrotation Xrotation Yrotation
                        JOINT RightHandMiddle2
                        {
                          OFFSET -3.94947 0 0
                          CHANNELS 3 Zrotation Xrotation Yrotation
                          JOINT RightHandMiddle3
                          {
                            OFFSET -2.47579 0 0
                            CHANNELS 3 Zrotation Xrotation Yrotation
                            End Site
                            {
                              OFFSET -1.975 0 0
                            }
                          }
                        }
                      }
                    }
                    JOINT RightInHandRing
                    {
                      OFFSET -3.36516 0.537895 -0.128947
                      CHANNELS 3 Zrotation Xrotation Yrotation
                      JOINT RightHandRing1
                      {
                        OFFSET -4.63474 -0.022105 -0.478947
                        CHANNELS 3 Zrotation Xrotation Yrotation
                        JOINT RightHandRing2
                        {
                          OFFSET -3.44238 0 0
                          CHANNELS 3 Zrotation Xrotation Yrotation
                          JOINT RightHandRing3
                          {
                            OFFSET -2.3881 0 0
                            CHANNELS 3 Zrotation Xrotation Yrotation
                            End Site
                            {
                              OFFSET -1.857 0 0
                            }
                          }
                        }
                      }
                    }
                    JOINT RightInHandPinky
                    {
                      OFFSET -3.16105 0.469368 -1.20179
                      CHANNELS 3 Zrotation Xrotation Yrotation
                      JOINT RightHandPinky1
                      {
                        OFFSET -4.14105 -0.022105 -1.09053
                        CHANNELS 3 Zrotation Xrotation Yrotation
                        JOINT RightHandPinky2
                        {
                          OFFSET -2.75653 0 0
                          CHANNELS 3 Zrotation Xrotation Yrotation
                          JOINT RightHandPinky3
                          {
                            OFFSET -1.74189 0 0
                            CHANNELS 3 Zrotation Xrotation Yrotation
                            End Site
                            {
                              OFFSET -1.645 0 0
                            }
                          }
                        }
                      }
                    }
                  }
                }
              }
            }
            JOINT LeftShoulder
            {
              OFFSET 3.24463 6.9123 -0.0189685
              CHANNELS 3 Zrotation Xrotation Yrotation
              JOINT LeftArm
              {
                OFFSET 12.8793 -0.0485389 -0.0634723
                CHANNELS 3 Zrotation Xrotation Yrotation
                JOINT LeftForeArm
                {
                  OFFSET 26.4894 0.00252616 -0.136149
                  CHANNELS 3 Zrotation Xrotation Yrotation
                  JOINT LeftHand
                  {
                    OFFSET 26.005 0.0292639 -0.0166184
                    CHANNELS 3 Zrotation Xrotation Yrotation
                    JOINT LeftHandThumb1
                    {
                      OFFSET 2.48905 0.190105 3.12053
                      CHANNELS 3 Zrotation Xrotation Yrotation
                      JOINT LeftHandThumb2
                      {
                        OFFSET 3.68274 0 0
                        CHANNELS 3 Zrotation Xrotation Yrotation
                        JOINT LeftHandThumb3
                        {
                          OFFSET 2.55832 0 0
                          CHANNELS 3 Zrotation Xrotation Yrotation
                          End Site
                          {
                            OFFSET 2.194 0 0
                          }
                        }
                      }
                    }
                    JOINT LeftInHandIndex
                    {
                      OFFSET 3.22368 0.508421 1.97842
                      CHANNELS 3 Zrotation Xrotation Yrotation
                      JOINT LeftHandIndex1
                      {
                        OFFSET 5.21684 -0.091368 0.999158
                        CHANNELS 3 Zrotation Xrotation Yrotation
                        JOINT LeftHandIndex2
                        {
                          OFFSET 3.61937 0 0
                          CHANNELS 3 Zrotation Xrotation Yrotation
                          JOINT LeftHandIndex3
                          {
                            OFFSET 2.0521 0 0
                            CHANNELS 3 Zrotation Xrotation Yrotation
                            End Site
                            {
                              OFFSET 1.805 0 0
                            }
                          }
                        }
                      }
                    }
                    JOINT LeftInHandMiddle
                    {
                      OFFSET 3.38211 0.517263 0.756737
                      CHANNELS 3 Zrotation Xrotation Yrotation
                      JOINT LeftHandMiddle1
                      {
                        OFFSET 5.17411 -0.084 0.313895
                        CHANNELS 3 Zrotation Xrotation Yrotation
                        JOINT LeftHandMiddle2
                        {
                          OFFSET 3.94947 0 0
                          CHANNELS 3 Zrotation Xrotation Yrotation
                          JOINT LeftHandMiddle3
                          {
                            OFFSET 2.47579 0 0
                            CHANNELS 3 Zrotation Xrotation Yrotation
                            End Site
                            {
                              OFFSET 1.975 0 0
                            }
                          }
                        }
                      }
                    }
                    JOINT LeftInHandRing
                    {
                      OFFSET 3.36516 0.537895 -0.128947
                      CHANNELS 3 Zrotation Xrotation Yrotation
                      JOINT LeftHandRing1
                      {
                        OFFSET 4.63474 -0.022105 -0.478947
                        CHANNELS 3 Zrotation Xrotation Yrotation
                        JOINT LeftHandRing2
                        {
                          OFFSET 3.44238 0 0
                          CHANNELS 3 Zrotation Xrotation Yrotation
                          JOINT LeftHandRing3
                          {
                            OFFSET 2.3881 0 0
                            CHANNELS 3 Zrotation Xrotation Yrotation
                            End Site
                            {
                              OFFSET 1.857 0 0
                            }
                          }
                        }
                      }
                    }
                    JOINT LeftInHandPinky
                    {
                      OFFSET 3.16105 0.469368 -1.20179
                      CHANNELS 3 Zrotation Xrotation Yrotation
                      JOINT LeftHandPinky1
                      {
                        OFFSET 4.14105 -0.022105 -1.09053
                        CHANNELS 3 Zrotation Xrotation Yrotation
                        JOINT LeftHandPinky2
                        {
                          OFFSET 2.75653 0 0
                          CHANNELS 3 Zrotation Xrotation Yrotation
                          JOINT LeftHandPinky3
                          {
                            OFFSET 1.74189 0 0
                            CHANNELS 3 Zrotation Xrotation Yrotation
                            End Site
                            {
                              OFFSET 1.645 0 0
                            }
                          }
                        }
                      }
                    }
                  }
                }
              }
            }
          }
        }
      }
    }
  }
}
MOTION
Frames:	4
Frame Time:	0.00833333
0 0 0 0 0 -0 21.115 0.819557 -140.424 34.1408 -38.4608 28.7989 -6.84614 16.7925 -2.64727 12.3991 15.74 58.7006 30.9959 -11.7038 20.2827 -23.3653 43.4642 24.1835 8.82162 -21.5175 20.2854 -2.48824 -2.03295 -9.37617 -0.601934 -0.588269 -2.31814 -1.005 -1.00098 -3.83243 -0.741017 -0.497377 2.7222 0.2304 -8.23747 43.3165 -11.8086 9.8126 26.2476 -2.08417 1.22255 5.7048 28.7688 -70.1545 0.994275 46.8568 6.6106 115.708 11.6463 -18.4815 2.85121 28.184 10.7294 19.1592 -1.01856e-14 3.47873e-15 -10 6.31631e-15 1.19271e-15 -10 3.77691e-15 1.59028e-15 3.97569e-16 19.9818 0.871897 2.3964 24 -3.18055e-15 -1.11319e-14 20 -6.75868e-15 -1.59028e-15 3.77691e-15 1.59028e-15 3.97569e-16 20 -1.59028e-15 9.54166e-15 24 0 -1.59028e-15 20 7.15625e-15 1.59028e-15 3.77691e-15 1.59028e-15 3.97569e-16 19.9748 -1.02565 -2.81938 24 9.54166e-15 -7.95139e-15 20 6.36111e-15 9.54166e-15 3.77691e-15 1.59028e-15 3.97569e-16 19.7815 -3.00948 -8.30515 24 3.18055e-15 1.59028e-15 20 6.36111e-15 7.95139e-15 8.78708 -25.8097 -55 -30.7179 22.2327 -97.8481 40.9951 -3.85543 -35.0581 -27.7622 -15.4641 -18.1488 -28.184 10.7294 -19.1592 -2.73645e-15 6.36111e-15 10 -5.61801e-15 -4.77083e-15 10 5.30507e-15 -6.36111e-15 -3.57812e-15 -19.9818 0.871897 -2.3964 -24 -7.15625e-15 3.97569e-15 -20 3.97569e-16 1.31198e-14 5.30507e-15 -6.36111e-15 -3.57812e-15 -20 -1.27222e-14 2.22639e-14 -24 -2.13694e-15 6.75868e-15 -20 2.5345e-15 9.54166e-15 5.30507e-15 -6.36111e-15 -3.57812e-15 -19.9748 -1.02565 2.81938 -24 3.18055e-15 6.03808e-15 -20 -3.97569e-16 -2.88238e-15 5.30507e-15 -6.36111e-15 -3.57812e-15 -19.7815 -3.00948 8.30515 -24 -1.59028e-15 1.27222e-14 -20 3.18055e-15 8.34896e-15 
0 0 0 0 0 -0 21.131 0.876509 -140.531 34.2103 -38.4306 28.8111 -6.84006 16.782 -2.64683 12.3432 15.8003 58.7905 31.0116 -11.6931 20.2998 -23.335 43.484 24.1969 8.8316 -21.4951 20.3482 -2.5015 -2.05055 -9.37232 -0.603653 -0.59309 -2.3199 -1.0065 -1.00906 -3.83218 -0.738177 -0.495418 2.72377 0.229829 -8.17738 43.3035 -11.7436 9.79197 26.2543 -2.02455 1.28484 5.80936 28.3225 -70.2589 0.546826 46.5786 6.58825 115.846 11.6034 -18.3982 2.91873 28.184 10.7294 19.1592 3.27388e-15 2.68359e-15 -10 3.72163e-15 0 -10 9.74045e-15 0 2.78299e-15 19.9818 0.871897 2.3964 24 -3.97569e-15 -1.11319e-14 20 -9.54166e-15 -3.18055e-15 9.74045e-15 0 2.78299e-15 20 -4.77083e-15 8.74653e-15 24 1.59028e-15 -1.59028e-15 20 6.36111e-15 -0 9.74045e-15 0 2.78299e-15 19.9748 -1.02565 -2.81938 24 9.54166e-15 -7.95139e-15 20 7.15625e-15 1.59028e-15 9.74045e-15 0 2.78299e-15 19.7815 -3.00948 -8.30515 24 4.77083e-15 -2.38542e-15 20 6.36111e-15 4.77083e-15 8.76396 -25.7894 -55.1161 -30.7856 22.262 -97.628 41.0342 -3.88277 -35.289 -27.8134 -15.4239 -18.2854 -28.184 10.7294 -19.1592 6.84111e-16 -1.59028e-15 10 -6.50111e-15 -4.77083e-15 10 7.69669e-15 -6.16232e-15 -3.37934e-15 -19.9818 0.871897 -2.3964 -24 -7.15625e-15 4.77083e-15 -20 7.95139e-16 1.39149e-14 7.69669e-15 -6.16232e-15 -3.37934e-15 -20 -1.30204e-14 2.3059e-14 -24 -2.36678e-15 7.55382e-15 -20 2.48481e-15 1.03368e-14 7.69669e-15 -6.16232e-15 -3.37934e-15 -19.9748 -1.02565 2.81938 -24 2.38542e-15 6.21513e-15 -20 3.97569e-16 -2.88238e-15 7.69669e-15 -6.16232e-15 -3.37934e-15 -19.7815 -3.00948 8.30515 -24 -2.38542e-15 1.35174e-14 -20 6.36111e-15 9.14409e-15 
0 0 0 0 0 -0 21.1472 0.939201 -140.624 34.2655 -38.4206 28.8312 -6.83249 16.7948 -2.67992 12.2483 15.8454 58.9069 31.0486 -11.6928 20.3162 -23.3444 43.5258 24.2429 8.9227 -21.3891 20.407 -2.51027 -2.04898 -9.38064 -0.605167 -0.593779 -2.32173 -1.00762 -1.01082 -3.83028 -0.73436 -0.491091 2.72516 0.229628 -8.11989 43.285 -11.681 9.77672 26.2537 -2.01556 1.27853 5.72064 28.4937 -70.2222 0.715475 46.4446 6.5821 115.972 11.5149 -18.6636 2.80415 28.184 10.7294 19.1592 -1.5698e-16 3.97569e-16 -10 1.48132e-14 -2.6339e-15 -10 1.59028e-14 -4.77083e-15 1.19271e-15 19.9818 0.871897 2.3964 24 -2.38542e-15 -1.43125e-14 20 -8.15017e-15 -0 1.59028e-14 -4.77083e-15 1.19271e-15 20 -3.18055e-15 8.74653e-15 24 0 -1.59028e-15 20 7.15625e-15 3.18055e-15 1.59028e-14 -4.77083e-15 1.19271e-15 19.9748 -1.02565 -2.81938 24 1.11319e-14 -6.36111e-15 20 3.97569e-15 6.36111e-15 1.59028e-14 -4.77083e-15 1.19271e-15 19.7815 -3.00948 -8.30515 24 0 -2.38542e-15 20 7.95139e-15 4.77083e-15 8.82234 -25.8011 -55.0228 -30.7052 22.2673 -97.7821 41.0517 -3.90523 -35.3048 -27.8594 -15.3853 -18.4208 -28.184 10.7294 -19.1592 -2.01851e-15 0 10 -7.48514e-15 -4.77083e-15 10 -5.33613e-15 -6.75868e-15 -3.18055e-15 -19.9818 0.871897 -2.3964 -24 -7.15625e-15 4.77083e-15 -20 -7.95139e-16 1.31198e-14 -5.33613e-15 -6.75868e-15 -3.18055e-15 -20 -1.26228e-14 2.22639e-14 -24 -2.33572e-15 5.96354e-15 -20 2.18663e-15 9.93923e-15 -5.33613e-15 -6.75868e-15 -3.18055e-15 -19.9748 -1.02565 2.81938 -24 2.38542e-15 6.58474e-15 -20 -1.98785e-16 -3.18055e-15 -5.33613e-15 -6.75868e-15 -3.18055e-15 -19.7815 -3.00948 8.30515 -24 -3.18055e-15 1.59028e-14 -20 4.77083e-15 8.74653e-15 
0 0 0 0 0 -0 21.1598 0.999912 -140.71 34.3132 -38.4272 28.8696 -6.80536 16.8268 -2.74042 12.0388 15.8774 59.0498 31.0865 -11.6791 20.3657 -23.3352 43.5633 24.2423 9.01664 -21.2913 20.4577 -2.52344 -2.05017 -9.38264 -0.606565 -0.593706 -2.32369 -1.0087 -1.01136 -3.82782 -0.7308 -0.485952 2.72625 0.225199 -8.05553 43.2522 -11.6223 9.77186 26.2533 -2.00916 1.26737 5.63054 28.7443 -70.1711 0.964014 46.1961 6.49114 116.117 11.4525 -19.0226 2.70005 28.184 10.7294 19.1592 -5.97773e-15 2.98177e-16 -10 1.02173e-14 -7.95139e-16 -10 6.16232e-15 0 2.38542e-15 19.9818 0.871897 2.3964 24 -3.18055e-15 -1.74931e-14 20 -8.54774e-15 -1.59028e-15 6.16232e-15 0 2.38542e-15 20 -3.18055e-15 1.03368e-14 24 3.18055e-15 -4.77083e-15 20 5.56597e-15 -0 6.16232e-15 0 2.38542e-15 19.9748 -1.02565 -2.81938 24 7.95139e-15 -6.36111e-15 20 3.97569e-15 3.18055e-15 6.16232e-15 0 2.38542e-15 19.7815 -3.00948 -8.30515 24 3.18055e-15 -1.59028e-15 20 7.95139e-15 7.95139e-15 8.82469 -25.7704 -55.0344 -30.5751 22.2345 -97.8309 41.0471 -3.95887 -35.3311 -27.8446 -15.3373 -18.5416 -28.184 10.7294 -19.1592 -6.65018e-15 7.95139e-15 10 -7.36757e-15 0 10 1.37907e-15 -5.96354e-15 -2.78299e-15 -19.9818 0.871897 -2.3964 -24 -7.15625e-15 1.59028e-15 -20 0 1.31198e-14 1.37907e-15 -5.96354e-15 -2.78299e-15 -20 -1.27719e-14 2.26615e-14 -24 -2.28602e-15 5.56597e-15 -20 2.5842e-15 9.14409e-15 1.37907e-15 -5.96354e-15 -2.78299e-15 -19.9748 -1.02565 2.81938 -24 2.38542e-15 6.5102e-15 -20 1.98785e-16 -2.98177e-15 1.37907e-15 -5.96354e-15 -2.78299e-15 -19.7815 -3.00948 8.30515 -24 -3.97569e-15 1.59028e-14 -20 1.59028e-15 9.14409e-15 
